# AST/ASF file generated using VICON BodyLanguage
# -----------------------------------------------
:version 1.10
:name VICON
:units
  mass 1.0
  length 0.45
  angle deg
:documentation
   .ast/.asf automatically generated from VICON data using
   VICON BodyBuilder and BodyLanguage model FoxedUp or BRILLIANT.MOD
:root
   order TX TY TZ RX RY RZ
   axis XYZ
   position 0 0 0  
   orientation 0 0 0 
:bonedata
  begin
     id 1 
     name lhipjoint
     direction 0.643272 -0.706573 0.294883 
     length 2.58915 
     axis 0 0 0  XYZ
  end
  begin
     id 2 
     name lfemur
     direction 0.34202 -0.939693 0  
     length 7.06802  
     axis 0 0 20  XYZ
    dof rx ry rz
    limits (-160.0 20.0)
           (-70.0 70.0)
           (-60.0 70.0)
  end
  begin
     id 3 
     name ltibia
     direction 0.34202 -0.939693 0   
     length 7.94147   
     axis 0 0 20   XYZ
    dof rx
    limits (-10.0 170.0)
  end
  begin
     id 4 
     name lfoot
     direction 0.0435058 -0.119531 0.991877   
     length 1.8399   
     axis -90 7.62852e-016 20   XYZ
    dof rx rz
    limits (-45.0 90.0)
           (-70.0 20.0)
  end
  begin
     id 5 
     name ltoes
     direction 1.53505e-011 -4.22157e-011 1   
     length 0.934412   
     axis -90 7.62852e-016 20   XYZ
    dof rx
    limits (-90.0 20.0)
  end
  begin
     id 6 
     name rhipjoint
     direction -0.636801 -0.711547 0.296959   
     length 2.57105  
     axis 0 0 0  XYZ 
  end
  begin
     id 7 
     name rfemur
     direction -0.34202 -0.939693 0   
     length 7.03285   
     axis 0 0 -20   XYZ
    dof rx ry rz
    limits (-160.0 20.0)
           (-70.0 70.0)
           (-70.0 60.0)
  end
  begin
     id 8 
     name rtibia
     direction -0.34202 -0.939693 0   
     length 7.99111   
     axis 0 0 -20   XYZ
    dof rx
    limits (-10.0 170.0)
 end
 begin
     id 9 
     name rfoot
     direction -0.0783088 -0.215152 0.973436   
     length 1.98785  
     axis -90 -7.62852e-016 -20   XYZ
    dof rx rz
    limits (-45.0 90.0)
           (-20.0 70.0)
  end
  begin
     id 10 
     name rtoes
     direction -1.53606e-011 -4.21943e-011 1   
     length 1.001   
     axis -90 -7.62852e-016 -20   XYZ
    dof rx
    limits (-90.0 20.0)
  end
  begin
     id 11 
     name lowerback
     direction 0.00141527 0.998403 -0.0564763   
     length 2.30486   
     axis 0 0 0   XYZ
    dof rx ry rz
    limits (-20.0 45.0)
           (-30.0 30.0)
           (-30.0 30.0)
  end
  begin
     id 12 
     name upperback
     direction 0.0125137 0.999915 0.00361315   
     length 2.30697   
     axis 0 0 0   XYZ
    dof rx ry rz
    limits (-20.0 45.0)
           (-30.0 30.0)
           (-30.0 30.0)
  end
  begin
     id 13 
     name thorax
     direction 0.0136417 0.999471 0.0295116   
     length 2.31005   
     axis 0 0 0   XYZ
    dof rx ry rz
    limits (-20.0 45.0)
           (-30.0 30.0)
           (-30.0 30.0)
  end
  begin
     id 14 
     name lowerneck
     direction 0.0766806 0.997047 0.00422047   
     length 1.68825   
     axis 0 0 0   XYZ
    dof rx ry rz
    limits (-20.0 45.0)
           (-30.0 30.0)
           (-30.0 30.0)
  end
  begin
     id 15 
     name upperneck
     direction -0.143512 0.985106 -0.0947088   
     length 1.69772   
     axis 0 0 0   XYZ
    dof rx ry rz
    limits (-20.0 45.0)
           (-30.0 30.0)
           (-30.0 30.0)
  end
  begin
     id 16
     name head
     direction -0.0539128 0.997849 -0.0372864  
     length 1.71187  
     axis 0 0 0   XYZ
    dof rx ry rz
    limits (-20.0 45.0)
           (-30.0 30.0)
           (-30.0 30.0)
  end
  begin
     id 17 
     name lclavicle
     direction 0.978251 0.207416 -0.00165765  
     length 3.35399  
     axis 0 0 0   XYZ
    dof ry rz
    limits (-20.0 10.0)
           (0.0 20.0)
  end
  begin
     id 18 
     name lhumerus
     direction 1 -4.48966e-011 -1.32191e-028   
     length 5.70706   
     axis 180 -30 -90   XYZ
    dof rx ry rz
    limits (-60.0 90.0)
           (-90.0 90.0)
           (-90.0 90.0)
  end
  begin
     id 19
     name lradius
     direction 1 -4.48976e-011 9.36106e-027   
     length 3.33243   
     axis 180 -30 -90   XYZ
    dof rx
    limits (-10.0 170.0)
  end
  begin
     id 20
     name lwrist
     direction 1 -4.48976e-011 1.1555e-026   
     length 1.66621   
     axis -5.7412e-015 90 90   XYZ
    dof ry
    limits (-180.0 0.0)
 end
  begin
     id 21 
     name lhand
     direction 1 -4.48939e-011 2.31113e-026   
     length 0.792687   
     axis -1.47463e-014 90 90   XYZ
    dof rx rz
    limits (-90.0 90.0)
           (-45.0 45.0)
  end
  begin
     id 22 
     name lfingers
     direction 1 -4.48866e-011 4.62274e-026   
     length 0.639085   
     axis -2.94925e-014 90 90   XYZ
    dof rx
    limits (0.0 90.0)
  end
  begin
     id 23
     name lthumb
     direction 0.707107 -6.34847e-011 0.707107   
     length 0.917601   
     axis -90 45 -6.68868e-015   XYZ
    dof rx rz
    limits (-45.0 45.0)
           (-45.0 45.0)
  end
  begin
     id 24 
     name rclavicle
     direction -0.981813 0.185514 0.0403428   
     length 3.47271  
     axis 0 0 0   XYZ 
    dof ry rz
    limits (-10.0 20.0)
           (-20.0 0.0)
  end
  begin
     id 25 
     name rhumerus
     direction -1 -4.48972e-011 -6.58544e-029  
     length 5.88176   
     axis 180 30 90   XYZ
    dof rx ry rz
    limits (-90.0 60.0)
           (-90.0 90.0)
           (-90.0 90.0)
  end
  begin
     id 26 
     name rradius
     direction -1 -4.48964e-011 8.36306e-027   
     length 3.28156   
     axis 180 30 90   XYZ
    dof rx
    limits (-10.0 170.0)
  end
  begin
     id 27 
     name rwrist
     direction -1 -4.48903e-011 1.15562e-026   
     length 1.64078   
     axis -5.7412e-015 -90 -90   XYZ
    dof ry
    limits (-180.0 0.0)
  end
  begin
     id 28
     name rhand
     direction -1 -4.49055e-011 2.31074e-026   
     length 0.863125   
     axis -1.47463e-014 -90 -90   XYZ
    dof rx rz
    limits (-90.0 90.0)
           (-45.0 45.0)
  end
  begin
     id 29
     name rfingers
     direction -1 -4.48994e-011 4.62188e-026   
     length 0.695873   
     axis -2.94925e-014 -90 -90   XYZ
    dof rx
    limits (0.0 90.0)
  end
  begin
     id 30
     name rthumb
     direction -0.707107 -6.35058e-011 0.707107   
     length 0.999139   
     axis -90 -45 6.68868e-015   XYZ
    dof rx rz
    limits (-45.0 45.0)
           (-45.0 45.0)
  end
:hierarchy
  begin
    root lhipjoint rhipjoint lowerback
    lhipjoint lfemur
    lfemur ltibia
    ltibia lfoot
    lfoot ltoes
    rhipjoint rfemur
    rfemur rtibia
    rtibia rfoot
    rfoot rtoes
    lowerback upperback
    upperback thorax
    thorax lowerneck lclavicle rclavicle
    lowerneck upperneck
    upperneck head
    lclavicle lhumerus
    lhumerus lradius
    lradius lwrist
    lwrist lhand lthumb
    lhand lfingers
    rclavicle rhumerus
    rhumerus rradius
    rradius rwrist
    rwrist rhand rthumb
    rhand rfingers
  end

#!OML:ASF \\Waltz\H\Terrain\Patient Classification 1\Animal2\Wednesday\Animal2.ASF
:FULLY-SPECIFIED
:DEGREES
1567
root -2.72374 16.9234 6.63468 1.12576 4.37934 -20.7173
lowerback 5.63587 -4.17747 7.47884
upperback -1.70462 -4.64237 8.49073
thorax -4.85084 -2.39851 5.21127
lowerneck -3.81863 -11.2724 7.95303
upperneck 2.76522 -15.268 -6.61866
head 0.345282 -7.67439 -3.55178
rclavicle -3.56784e-015 -6.21202e-014
rhumerus 35.3951 46.7959 -32.2661
rradius 89.8474
rwrist -20.241
rhand -19.88 21.6878
rfingers 7.12502
rthumb 6.45568 -8.19382
lclavicle -3.56784e-015 -6.21202e-014
lhumerus 28.2181 17.996 12.6671
lradius 76.8536
lwrist 1.76806
lhand -52.5556 24.0852
lfingers 7.12502
lthumb -25.04 52.4639
rfemur 0.702976 -2.66911 24.7934
rtibia 17.424
rfoot -12.4982 6.90419
rtoes 5.37967
lfemur -25.4567 -6.9225 7.87495
ltibia 56.3237
lfoot -30.1343 3.67602
ltoes -21.3593
1568
root -2.6711 16.9132 6.6401 1.21565 4.35216 -20.3675
lowerback 5.35133 -4.17207 7.65798
upperback -1.55386 -4.68219 8.31468
thorax -4.55724 -2.42189 4.88983
lowerneck -4.19306 -11.1413 8.07986
upperneck 2.75839 -15.1221 -6.87545
head 0.387665 -7.6105 -3.689
rclavicle 2.22953e-014 3.3694e-014
rhumerus 35.6527 46.5747 -32.2483
rradius 89.5767
rwrist -20.604
rhand -20.3409 21.4239
rfingers 7.12502
rthumb 6.01066 -8.47083
lclavicle 2.22953e-014 3.3694e-014
lhumerus 28.369 18.148 13.056
lradius 76.6102
lwrist 1.41429
lhand -51.9858 24.0145
lfingers 7.12502
lthumb -24.4939 52.4682
rfemur 0.613977 -1.95923 24.4068
rtibia 17.6682
rfoot -13.2394 6.00153
rtoes 5.43187
lfemur -25.3896 -6.47976 7.29291
ltibia 56.1644
lfoot -30.7279 2.66305
ltoes -17.1432
1569
root -2.61419 16.8938 6.63932 1.29423 4.33088 -19.966
lowerback 5.37485 -4.20045 7.77678
upperback -1.59624 -4.70804 8.15609
thorax -4.63804 -2.4401 4.66369
lowerneck -4.14016 -11.0039 8.39745
upperneck 2.49035 -14.9536 -7.32804
head 0.242083 -7.53371 -3.87939
rclavicle 1.68268e-015 -4.18442e-014
rhumerus 35.5287 46.6496 -32.5629
rradius 89.3395
rwrist -20.7367
rhand -20.8888 21.9389
rfingers 7.12502
rthumb 5.48174 -7.97018
lclavicle 1.68268e-015 -4.18442e-014
lhumerus 28.0925 17.9125 13.1319
lradius 76.6312
lwrist 1.62633
lhand -51.2884 24.387
lfingers 7.12502
lthumb -23.8252 52.9296
rfemur 0.524235 -1.13712 23.9571
rtibia 17.9163
rfoot -13.8897 4.95698
rtoes 6.2022
lfemur -25.2743 -5.98091 6.62211
ltibia 56.0232
lfoot -31.17 2.0985
ltoes -15.6575
1570
root -2.55086 16.8678 6.63518 1.43353 4.42897 -19.6069
lowerback 5.39309 -4.25175 8.0371
upperback -1.72616 -4.74435 7.99891
thorax -4.82119 -2.46901 4.37027
lowerneck -3.92716 -10.8431 8.75487
upperneck 2.20058 -14.7468 -7.78028
head 0.062171 -7.43438 -4.06819
rclavicle -3.60167e-014 3.42407e-014
rhumerus 35.2494 46.8115 -32.8564
rradius 89.0913
rwrist -20.6735
rhand -21.0408 21.6048
rfingers 7.12502
rthumb 5.33492 -8.30803
lclavicle -3.60167e-014 3.42407e-014
lhumerus 27.8639 17.5825 13.3586
lradius 76.5134
lwrist 1.7166
lhand -51.5937 24.5547
lfingers 7.12502
lthumb -24.1179 53.0587
rfemur 0.351646 -0.611541 23.5226
rtibia 18.1402
rfoot -14.4444 3.71143
rtoes 4.52828
lfemur -25.3145 -5.56496 5.98038
ltibia 55.9142
lfoot -31.2892 2.58919
ltoes -18.6066
1571
root -2.48468 16.8541 6.63357 1.54135 4.51609 -19.145
lowerback 5.34068 -4.30316 8.1832
upperback -1.79781 -4.80547 7.85894
thorax -4.8913 -2.50604 4.1491
lowerneck -3.73314 -10.5781 8.72735
upperneck 2.01477 -14.3819 -8.03305
head -0.0184927 -7.25421 -4.13864
rclavicle 2.59255e-016 1.02343e-014
rhumerus 35.276 46.9676 -32.8492
rradius 88.8387
rwrist -20.8526
rhand -20.5473 20.3602
rfingers 7.12502
rthumb 5.81139 -9.54015
lclavicle 2.59255e-016 1.02343e-014
lhumerus 27.7685 17.3522 13.7701
lradius 76.1551
lwrist 1.64004
lhand -51.8974 24.025
lfingers 7.12502
lthumb -24.4091 52.4902
rfemur 0.155392 -0.0747673 22.9722
rtibia 18.4976
rfoot -14.9424 2.59401
rtoes 3.83051
lfemur -25.3747 -5.46622 5.22793
ltibia 55.8341
lfoot -31.2985 2.60204
ltoes -19.2612
1572
root -2.41516 16.8528 6.638 1.53784 4.49755 -18.3088
lowerback 5.40341 -4.3413 7.91519
upperback -1.83416 -4.87226 7.64968
thorax -4.95868 -2.5353 4.08724
lowerneck -3.62967 -10.2215 8.55988
upperneck 1.92053 -13.8922 -8.23954
head -0.0267712 -7.01245 -4.1846
rclavicle 4.31301e-014 -3.18055e-015
rhumerus 35.3988 47.1875 -32.7762
rradius 88.5882
rwrist -21.2192
rhand -20.2336 19.7773
rfingers 7.12502
rthumb 6.11434 -10.1144
lclavicle 4.31301e-014 -3.18055e-015
lhumerus 27.5443 17.1487 14.1223
lradius 75.9111
lwrist 1.68809
lhand -51.9773 23.4845
lfingers 7.12502
lthumb -24.4858 51.9393
rfemur 0.0419072 0.744005 22.014
rtibia 19.0308
rfoot -15.4279 1.71237
rtoes 5.83288
lfemur -25.2599 -5.44767 4.00938
ltibia 55.7834
lfoot -31.4117 2.36676
ltoes -18.9761
